<?xml version="1.0" encoding="UTF-8" standalone="no"?>
<svg xmlns="http://www.w3.org/2000/svg"
     xmlns:svg="http://www.w3.org/2000/svg"
     version="1.1"
     width="10.4167in" height="10.4167in"
     viewBox="0 0 750 750">
  <path id="path1"
        fill="none" stroke="black" stroke-width="1"
        d="M 402.00,105.00
           C 409.51,104.99 426.37,99.88 436.00,101.21
             440.24,101.79 447.64,103.58 444.00,109.00
             444.00,109.00 446.00,109.00 446.00,109.00
             446.00,109.00 437.00,119.00 437.00,119.00
             437.00,119.00 434.00,117.00 434.00,117.00
             434.00,117.00 433.00,121.00 433.00,121.00
             433.00,121.00 435.00,120.00 435.00,120.00
             435.00,120.00 432.03,130.72 432.03,130.72
             432.03,130.72 431.50,136.72 431.50,136.72
             431.50,136.72 429.00,143.00 429.00,143.00
             429.00,143.00 424.00,149.00 424.00,149.00
             429.46,147.15 434.14,145.55 440.00,146.17
             457.50,148.04 463.06,165.12 465.13,180.00
             465.64,183.69 466.16,186.17 465.96,190.00
             465.86,191.86 465.69,193.22 465.03,194.98
             459.74,209.19 448.14,193.62 444.73,190.42
             443.25,189.03 440.81,187.20 439.00,186.30
             435.21,184.42 430.11,184.47 426.00,185.00
             427.68,186.87 424.22,189.54 420.00,187.00
             420.00,187.00 420.00,191.00 420.00,191.00
             420.00,191.00 417.00,190.00 417.00,190.00
             417.00,190.00 415.00,209.00 415.00,209.00
             415.00,209.00 416.00,228.00 416.00,228.00
             416.00,228.00 401.00,236.91 401.00,236.91
             401.00,236.91 393.00,241.13 393.00,241.13
             393.00,241.13 384.00,239.00 384.00,239.00
             384.00,239.00 380.00,234.00 380.00,234.00
             380.00,234.00 378.00,231.00 378.00,231.00
             377.92,224.76 375.33,226.06 372.00,219.00
             372.00,219.00 370.00,219.00 370.00,219.00
             370.00,219.00 366.00,227.00 366.00,227.00
             366.00,227.00 360.00,239.00 360.00,239.00
             360.00,239.00 359.00,239.00 359.00,239.00
             359.00,239.00 357.00,237.00 357.00,237.00
             350.50,243.39 347.53,236.38 341.00,235.48
             335.49,234.72 331.74,240.16 327.15,238.38
             323.59,237.01 324.12,232.44 323.22,229.00
             319.62,215.18 324.50,207.25 324.00,196.00
             317.74,197.62 315.38,195.86 310.15,198.17
             297.63,203.72 302.02,211.93 290.09,206.00
             290.66,196.84 284.86,191.45 290.09,181.00
             291.67,178.08 292.23,176.78 295.00,175.00
             295.00,175.00 297.00,165.77 297.00,165.77
             297.00,165.77 303.04,165.77 303.04,165.77
             303.04,165.77 316.00,170.17 316.00,170.17
             317.76,171.10 318.72,171.88 320.89,170.17
             324.73,167.42 322.52,161.59 320.89,158.00
             320.89,158.00 329.00,156.00 329.00,156.00
             329.00,156.00 328.00,154.00 328.00,154.00
             328.00,154.00 329.00,153.00 329.00,153.00
             326.12,150.37 327.67,148.52 327.66,145.00
             327.66,145.00 327.00,131.00 327.00,131.00
             327.00,131.00 328.00,129.00 328.00,129.00
             328.00,129.00 330.00,129.00 330.00,129.00
             330.48,118.96 338.35,121.80 344.00,117.00
             344.00,117.00 346.00,118.00 346.00,118.00
             348.12,115.23 349.77,115.09 353.00,114.00
             355.36,113.20 359.62,111.57 362.00,111.72
             365.86,111.95 378.29,120.92 381.00,124.00
             381.00,124.00 402.00,105.00 402.00,105.00 Z
           M 404.00,106.00
           C 404.00,106.00 403.00,106.00 403.00,106.00
             403.00,106.00 404.00,107.00 404.00,107.00
             404.00,107.00 404.00,106.00 404.00,106.00 Z
           M 403.00,107.00
           C 403.00,107.00 402.00,107.00 402.00,107.00
             402.00,107.00 403.00,108.00 403.00,108.00
             403.00,108.00 403.00,107.00 403.00,107.00 Z
           M 436.00,116.00
           C 436.00,116.00 435.00,116.00 435.00,116.00
             435.00,116.00 436.00,117.00 436.00,117.00
             436.00,117.00 436.00,116.00 436.00,116.00 Z
           M 422.00,186.00
           C 422.00,186.00 421.00,186.00 421.00,186.00
             421.00,186.00 422.00,187.00 422.00,187.00
             422.00,187.00 422.00,186.00 422.00,186.00 Z
           M 308.00,196.00
           C 308.00,196.00 307.00,196.00 307.00,196.00
             307.00,196.00 308.00,197.00 308.00,197.00
             308.00,197.00 308.00,196.00 308.00,196.00 Z
           M 306.00,197.00
           C 306.00,197.00 305.00,197.00 305.00,197.00
             305.00,197.00 306.00,198.00 306.00,198.00
             306.00,198.00 306.00,197.00 306.00,197.00 Z
           M 364.00,225.00
           C 364.00,225.00 363.00,225.00 363.00,225.00
             363.00,225.00 364.00,226.00 364.00,226.00
             364.00,226.00 364.00,225.00 364.00,225.00 Z
           M 363.00,226.00
           C 363.00,226.00 362.00,230.00 362.00,230.00
             362.00,230.00 363.00,226.00 363.00,226.00 Z
           M 362.00,231.00
           C 362.00,231.00 361.00,231.00 361.00,231.00
             361.00,231.00 362.00,232.00 362.00,232.00
             362.00,232.00 362.00,231.00 362.00,231.00 Z" />
</svg>
