<?xml version="1.0" encoding="UTF-8"?>
<!DOCTYPE svg PUBLIC "-//W3C//DTD SVG 1.1//EN" "http://www.w3.org/Graphics/SVG/1.1/DTD/svg11.dtd">
<svg xmlns="http://www.w3.org/2000/svg" version="1.1" width="128px" height="128px" style="shape-rendering:geometricPrecision; text-rendering:geometricPrecision; image-rendering:optimizeQuality; fill-rule:evenodd; clip-rule:evenodd" xmlns:xlink="http://www.w3.org/1999/xlink">
<g><path style="opacity:1" fill="#000000" d="M 127.5,14.5 C 127.5,17.8333 127.5,21.1667 127.5,24.5C 122.018,33.8314 115.518,42.498 108,50.5C 99.6257,59.0418 91.1257,67.3751 82.5,75.5C 90.8497,84.0157 99.0163,92.6823 107,101.5C 110.996,108.183 109.829,113.85 103.5,118.5C 99.8529,120.94 95.8529,122.607 91.5,123.5C 86.893,121.863 82.5596,119.696 78.5,117C 71.6877,111.689 65.021,106.189 58.5,100.5C 51.5437,107.293 43.877,113.126 35.5,118C 32.7236,119.037 29.8902,119.87 27,120.5C 18.7363,117.903 13.5696,112.403 11.5,104C 12.4226,99.7403 14.256,95.9069 17,92.5C 23.0091,87.3227 28.8424,81.9894 34.5,76.5C 28.193,70.5278 21.8597,64.5278 15.5,58.5C 9.43513,52.6514 4.1018,46.318 -0.5,39.5C -0.5,36.8333 -0.5,34.1667 -0.5,31.5C 3.3443,27.2237 7.67763,23.3903 12.5,20C 16.6665,17.9142 20.6665,18.2475 24.5,21C 36.0162,32.017 47.6829,42.8503 59.5,53.5C 76.0149,37.8186 92.0149,21.6519 107.5,5C 110.5,3 113.5,3 116.5,5C 120.975,7.31376 124.642,10.4804 127.5,14.5 Z"/></g>
</svg>
