<?xml version="1.0" encoding="UTF-8" standalone="no"?>
<svg xmlns="http://www.w3.org/2000/svg"
     xmlns:svg="http://www.w3.org/2000/svg"
     version="1.1"
     width="10.4167in" height="10.4167in"
     viewBox="0 0 750 750">
  <path id="path1"
        fill="none" stroke="black" stroke-width="1"
        d="M 404.00,229.00
           C 408.34,228.25 414.81,222.69 422.00,224.33
             427.07,225.49 430.07,231.84 432.81,235.83
             441.45,248.44 444.21,248.98 444.00,265.00
             443.86,274.80 440.55,273.14 439.00,283.00
             443.10,281.63 454.44,277.54 458.00,277.20
             461.14,276.89 468.52,278.23 472.00,278.73
             476.07,279.32 481.34,279.48 484.00,283.00
             484.00,283.00 487.00,281.00 487.00,281.00
             490.57,287.40 500.19,300.80 497.94,307.90
             496.26,313.20 489.87,312.01 483.00,314.42
             476.62,316.66 461.45,324.10 456.00,327.85
             447.42,333.75 452.07,335.55 439.00,338.00
             439.02,343.83 435.27,345.12 435.29,353.98
             435.29,353.98 437.82,371.00 437.82,371.00
             438.10,375.19 437.11,376.28 436.37,380.00
             434.94,387.20 435.88,389.91 430.97,396.72
             423.65,406.86 418.18,407.29 407.00,406.17
             403.38,405.80 399.30,406.24 396.43,403.49
             396.43,403.49 389.55,390.00 389.55,390.00
             385.51,383.35 377.10,374.75 375.11,369.00
             373.47,364.29 374.78,359.79 374.00,355.00
             367.41,358.03 368.93,358.31 363.91,361.91
             356.01,367.59 343.66,376.98 334.00,378.00
             332.53,382.15 331.19,381.48 328.20,384.26
             325.54,386.72 324.74,389.10 320.96,390.35
             308.53,394.45 303.67,375.91 304.68,367.00
             304.95,364.67 308.48,350.03 309.54,348.09
             312.13,343.31 320.02,332.49 320.00,328.00
             329.82,322.02 326.26,324.45 336.00,321.16
             337.82,320.54 341.36,319.62 341.78,317.44
             342.16,315.51 339.19,310.61 338.11,308.91
             338.11,308.91 322.71,289.00 322.71,289.00
             320.90,286.06 318.46,280.46 318.39,277.00
             318.33,274.18 319.85,270.84 320.49,268.00
             320.49,268.00 323.92,249.00 323.92,249.00
             324.77,244.34 327.71,235.53 332.20,233.21
             335.77,231.38 352.67,235.73 356.00,237.72
             356.00,237.72 380.00,257.00 380.00,257.00
             380.00,257.00 384.00,246.00 384.00,246.00
             384.00,246.00 404.00,229.00 404.00,229.00 Z
           M 375.00,354.00
           C 375.00,354.00 374.00,354.00 374.00,354.00
             374.00,354.00 375.00,355.00 375.00,355.00
             375.00,355.00 375.00,354.00 375.00,354.00 Z" />
</svg>
