<?xml version="1.0" encoding="UTF-8" standalone="no"?>
<svg xmlns="http://www.w3.org/2000/svg"
     xmlns:svg="http://www.w3.org/2000/svg"
     version="1.1"
     width="10.4167in" height="10.4167in"
     viewBox="0 0 750 750">
  <path id="path1"
        fill="none" stroke="black" stroke-width="1"
        d="M 245.00,124.00
           C 247.76,117.31 257.25,101.91 262.44,97.74
             265.20,95.52 268.76,94.78 272.00,93.54
             283.82,89.02 288.43,87.97 301.00,88.00
             304.80,88.01 311.06,87.69 311.46,92.98
             311.81,97.61 305.65,99.10 301.80,104.09
             295.07,112.80 295.57,121.97 292.00,130.00
             297.77,131.05 309.44,132.59 314.00,136.00
             314.00,136.00 311.00,135.00 311.00,135.00
             314.11,137.31 314.14,137.28 318.00,137.00
             318.00,137.00 322.49,155.00 322.49,155.00
             322.49,155.00 325.97,166.00 325.97,166.00
             326.77,170.12 326.61,174.43 321.95,176.07
             316.73,177.90 312.64,172.83 307.00,170.36
             300.42,167.47 293.01,168.00 286.00,168.00
             286.00,168.00 290.00,176.00 290.00,176.00
             287.81,181.40 291.59,184.17 292.88,190.00
             294.74,198.45 293.48,202.10 294.25,207.00
             295.93,217.60 303.82,233.53 293.61,242.49
             289.02,246.52 283.77,242.33 279.00,240.91
             274.83,239.68 268.85,238.36 265.00,236.45
             265.00,236.45 249.00,225.01 249.00,225.01
             246.40,223.12 238.84,216.46 236.09,216.73
             233.64,216.98 228.80,222.23 227.00,224.01
             220.99,229.95 216.61,234.85 212.05,242.00
             210.17,244.96 206.56,252.51 203.87,253.96
             197.88,257.20 190.47,249.80 187.99,245.00
             181.07,231.57 180.06,219.96 186.00,206.00
             186.00,206.00 172.00,205.00 172.00,205.00
             170.29,206.72 165.28,212.65 163.79,213.24
             158.09,215.52 157.25,209.97 156.85,206.01
             156.05,198.08 157.91,189.99 162.08,183.04
             164.74,178.59 176.23,169.98 181.00,167.99
             181.00,167.99 200.00,163.00 200.00,163.00
             199.00,159.73 195.79,143.81 196.16,141.00
             196.40,139.14 196.96,137.67 198.31,136.31
             201.72,132.90 205.37,135.12 208.15,131.69
             211.58,127.45 208.22,124.55 216.00,120.00
             216.00,120.00 215.00,123.00 215.00,123.00
             215.00,123.00 220.00,121.00 220.00,121.00
             220.00,121.00 219.00,119.00 219.00,119.00
             219.00,119.00 223.00,118.00 223.00,118.00
             223.00,118.00 225.22,119.46 225.22,119.46
             225.22,119.46 245.00,124.00 245.00,124.00 Z
           M 255.00,109.00
           C 255.00,109.00 254.00,109.00 254.00,109.00
             254.00,109.00 255.00,110.00 255.00,110.00
             255.00,110.00 255.00,109.00 255.00,109.00 Z
           M 297.00,109.00
           C 297.00,109.00 296.00,109.00 296.00,109.00
             296.00,109.00 297.00,110.00 297.00,110.00
             297.00,110.00 297.00,109.00 297.00,109.00 Z
           M 213.00,124.00
           C 213.00,124.00 212.00,124.00 212.00,124.00
             212.00,124.00 213.00,125.00 213.00,125.00
             213.00,125.00 213.00,124.00 213.00,124.00 Z
           M 293.00,124.00
           C 293.00,124.00 292.00,124.00 292.00,124.00
             292.00,124.00 293.00,125.00 293.00,125.00
             293.00,125.00 293.00,124.00 293.00,124.00 Z
           M 293.00,126.00
           C 293.00,126.00 292.00,126.00 292.00,126.00
             292.00,126.00 293.00,127.00 293.00,127.00
             293.00,127.00 293.00,126.00 293.00,126.00 Z
           M 202.00,132.00
           C 202.00,132.00 203.00,132.00 203.00,132.00
             203.00,132.00 202.00,133.00 202.00,133.00
             202.00,133.00 202.00,132.00 202.00,132.00 Z
           M 198.00,138.00
           C 198.00,138.00 197.00,138.00 197.00,138.00
             197.00,138.00 198.00,139.00 198.00,139.00
             198.00,139.00 198.00,138.00 198.00,138.00 Z
           M 166.00,180.00
           C 166.00,180.00 165.00,180.00 165.00,180.00
             165.00,180.00 166.00,181.00 166.00,181.00
             166.00,181.00 166.00,180.00 166.00,180.00 Z
           M 164.00,182.00
           C 164.00,182.00 163.00,182.00 163.00,182.00
             163.00,182.00 164.00,183.00 164.00,183.00
             164.00,183.00 164.00,182.00 164.00,182.00 Z" />
</svg>
