<?xml version="1.0" encoding="UTF-8" standalone="no"?>
<svg xmlns="http://www.w3.org/2000/svg"
     xmlns:svg="http://www.w3.org/2000/svg"
     version="1.1"
     width="10.4167in" height="10.4167in"
     viewBox="0 0 750 750">
  <path id="path1"
        fill="none" stroke="black" stroke-width="1"
        d="M 450.00,88.00
           C 454.92,86.45 469.30,84.94 473.83,87.27
             473.83,87.27 487.91,97.80 487.91,97.80
             490.77,100.29 492.26,103.00 496.00,104.00
             496.00,104.00 495.00,107.00 495.00,107.00
             495.00,107.00 499.00,108.00 499.00,108.00
             499.31,112.39 501.79,118.97 505.00,122.00
             505.04,125.66 507.53,131.10 511.18,132.50
             513.43,133.37 517.58,132.05 520.00,131.62
             520.00,131.62 529.00,130.75 529.00,130.75
             529.00,130.75 537.00,129.00 537.00,129.00
             540.55,134.30 544.72,139.16 548.87,144.00
             552.06,147.71 554.97,149.95 555.00,155.00
             555.00,155.00 557.00,159.00 557.00,159.00
             557.00,159.00 554.00,161.00 554.00,161.00
             554.00,161.00 557.00,162.00 557.00,162.00
             557.00,162.00 553.00,163.00 553.00,163.00
             556.08,168.67 547.72,177.14 546.00,183.00
             550.39,183.21 562.43,186.36 565.91,188.73
             568.44,190.46 570.52,193.62 572.46,196.00
             578.13,202.97 581.33,205.06 581.80,214.58
             581.80,214.58 582.32,221.99 582.32,221.99
             582.07,225.12 580.09,233.97 576.86,235.00
             571.45,236.74 570.60,229.84 562.00,228.19
             557.68,227.37 551.48,227.40 548.00,225.00
             547.92,233.85 544.81,237.98 548.00,244.00
             548.00,244.00 545.00,243.00 545.00,243.00
             546.46,253.08 541.34,253.97 534.00,257.75
             527.67,261.00 523.30,264.00 516.00,265.38
             512.80,265.99 505.05,266.88 502.80,264.40
             499.38,261.15 503.03,256.78 502.80,252.00
             502.80,252.00 504.00,251.00 504.00,251.00
             507.41,250.17 507.73,249.31 507.00,246.00
             507.00,246.00 506.00,249.00 506.00,249.00
             506.00,249.00 507.00,242.00 507.00,242.00
             514.64,239.55 506.57,233.91 503.00,227.00
             495.95,230.42 495.06,229.11 489.00,231.24
             489.00,231.24 470.00,240.11 470.00,240.11
             464.62,242.72 459.26,247.00 453.00,246.15
             445.24,245.11 442.50,243.40 439.76,236.00
             438.62,232.92 438.00,231.35 438.31,228.00
             438.31,228.00 439.05,223.28 439.05,223.28
             439.05,223.28 439.73,215.00 439.73,215.00
             440.49,211.23 439.95,206.56 443.00,204.00
             442.81,200.20 444.95,189.92 450.02,190.08
             452.87,190.16 458.39,194.37 461.00,196.00
             463.74,180.70 461.32,164.78 448.00,155.15
             444.22,152.42 441.00,149.55 436.00,150.24
             431.38,150.87 424.75,156.92 420.62,151.69
             417.38,147.58 422.99,143.71 425.41,140.93
             426.74,139.40 427.37,138.21 429.21,137.12
             433.58,134.52 445.87,132.50 451.00,133.21
             451.00,133.21 460.00,135.00 460.00,135.00
             460.00,135.00 458.88,103.97 458.88,103.97
             456.86,97.11 451.78,99.29 450.00,88.00 Z
           M 498.00,108.00
           C 498.00,108.00 497.00,108.00 497.00,108.00
             497.00,108.00 498.00,109.00 498.00,109.00
             498.00,109.00 498.00,108.00 498.00,108.00 Z
           M 554.00,165.00
           C 554.00,165.00 553.00,165.00 553.00,165.00
             553.00,165.00 554.00,166.00 554.00,166.00
             554.00,166.00 554.00,165.00 554.00,165.00 Z
           M 444.00,204.00
           C 444.00,204.00 443.00,204.00 443.00,204.00
             443.00,204.00 444.00,205.00 444.00,205.00
             444.00,205.00 444.00,204.00 444.00,204.00 Z
           M 442.00,208.00
           C 442.00,208.00 441.00,208.00 441.00,208.00
             441.00,208.00 442.00,209.00 442.00,209.00
             442.00,209.00 442.00,208.00 442.00,208.00 Z
           M 553.00,225.00
           C 553.00,225.00 552.00,225.00 552.00,225.00
             552.00,225.00 553.00,226.00 553.00,226.00
             553.00,226.00 553.00,225.00 553.00,225.00 Z
           M 557.00,225.00
           C 557.00,225.00 556.00,225.00 556.00,225.00
             556.00,225.00 557.00,226.00 557.00,226.00
             557.00,226.00 557.00,225.00 557.00,225.00 Z
           M 564.00,225.00
           C 564.00,225.00 563.00,225.00 563.00,225.00
             563.00,225.00 564.00,226.00 564.00,226.00
             564.00,226.00 564.00,225.00 564.00,225.00 Z
           M 567.00,226.00
           C 567.00,226.00 566.00,226.00 566.00,226.00
             566.00,226.00 567.00,227.00 567.00,227.00
             567.00,227.00 567.00,226.00 567.00,226.00 Z
           M 547.00,240.00
           C 547.00,240.00 548.00,240.00 548.00,240.00
             548.00,240.00 547.00,241.00 547.00,241.00
             547.00,241.00 547.00,240.00 547.00,240.00 Z
           M 545.00,246.00
           C 545.00,246.00 544.00,246.00 544.00,246.00
             544.00,246.00 545.00,247.00 545.00,247.00
             545.00,247.00 545.00,246.00 545.00,246.00 Z
           M 543.00,250.00
           C 543.00,250.00 542.00,250.00 542.00,250.00
             542.00,250.00 543.00,251.00 543.00,251.00
             543.00,251.00 543.00,250.00 543.00,250.00 Z
           M 505.00,252.00
           C 505.00,252.00 504.00,252.00 504.00,252.00
             504.00,252.00 505.00,253.00 505.00,253.00
             505.00,253.00 505.00,252.00 505.00,252.00 Z" />
</svg>
