<?xml version="1.0" encoding="UTF-8" standalone="no"?>
<svg xmlns="http://www.w3.org/2000/svg"
     xmlns:svg="http://www.w3.org/2000/svg"
     version="1.1"
     width="10.4167in" height="10.4167in"
     viewBox="0 0 750 750">
  <path id="path1"
        fill="none" stroke="black" stroke-width="1"
        d="M 537.00,277.00
           C 538.86,271.22 545.72,267.22 549.93,263.00
             549.93,263.00 562.29,249.09 562.29,249.09
             563.66,247.69 566.06,245.25 568.17,245.29
             570.85,245.35 576.84,250.88 578.98,252.75
             582.12,255.50 582.80,256.01 584.00,260.00
             590.34,260.92 587.08,267.78 586.41,272.00
             586.41,272.00 586.41,279.00 586.41,279.00
             586.41,279.00 585.18,285.00 585.18,285.00
             583.80,295.61 584.55,298.15 581.00,309.00
             584.24,309.44 599.52,312.13 601.58,313.40
             603.95,314.86 604.86,318.49 605.81,321.00
             608.30,327.60 611.36,334.06 609.00,341.00
             609.00,341.00 611.00,339.00 611.00,339.00
             611.00,339.00 612.00,339.00 612.00,339.00
             608.93,353.99 598.03,354.45 593.00,365.00
             596.99,367.05 606.81,377.12 609.07,381.00
             610.16,382.89 611.27,386.78 612.00,389.00
             612.00,389.00 610.00,389.00 610.00,389.00
             610.48,392.79 610.21,396.88 606.00,398.00
             606.32,403.55 605.66,412.28 601.49,416.50
             596.61,421.46 589.18,419.71 590.00,411.00
             590.00,411.00 589.00,410.00 589.00,410.00
             589.00,410.00 584.00,408.00 584.00,408.00
             584.00,408.00 587.00,409.00 587.00,409.00
             587.00,409.00 575.00,403.00 575.00,403.00
             575.00,403.00 576.00,405.00 576.00,405.00
             576.00,405.00 572.00,404.00 572.00,404.00
             572.00,404.00 570.28,415.83 570.28,415.83
             569.24,418.49 567.06,419.79 564.66,426.00
             563.52,428.96 562.51,434.64 561.07,436.74
             559.76,438.64 555.98,441.08 554.00,442.61
             546.81,448.20 538.19,453.89 529.00,455.00
             529.00,455.00 522.00,450.00 522.00,450.00
             522.00,450.00 526.83,427.96 526.83,427.96
             528.78,420.88 531.18,414.50 529.70,407.00
             528.65,401.64 527.69,396.23 522.90,392.81
             520.12,390.83 513.43,388.67 510.00,388.65
             506.01,388.63 503.82,390.77 500.00,391.61
             494.13,392.91 482.12,393.15 476.00,392.66
             473.34,392.45 470.54,392.61 468.11,391.36
             463.47,388.97 459.42,380.10 459.79,375.00
             460.57,364.17 466.31,361.21 473.91,355.29
             473.91,355.29 479.17,350.59 479.17,350.59
             479.17,350.59 493.82,339.39 493.82,339.39
             496.84,336.30 495.92,334.34 499.00,329.00
             499.00,329.00 497.00,329.00 497.00,329.00
             497.89,321.01 493.86,299.88 489.86,293.09
             485.69,286.00 478.40,286.01 477.00,276.00
             462.40,274.26 474.46,259.05 483.00,259.48
             489.08,259.79 498.87,261.35 504.00,264.56
             504.00,264.56 519.72,275.79 519.72,275.79
             521.62,277.19 524.84,280.01 527.00,280.57
             529.05,281.10 531.85,280.18 534.00,280.00
             534.00,280.00 537.00,277.00 537.00,277.00 Z
           M 556.00,260.00
           C 556.00,260.00 555.00,260.00 555.00,260.00
             555.00,260.00 556.00,261.00 556.00,261.00
             556.00,261.00 556.00,260.00 556.00,260.00 Z
           M 587.00,263.00
           C 587.00,263.00 586.00,263.00 586.00,263.00
             586.00,263.00 587.00,264.00 587.00,264.00
             587.00,264.00 587.00,263.00 587.00,263.00 Z
           M 587.00,266.00
           C 587.00,266.00 586.00,266.00 586.00,266.00
             586.00,266.00 587.00,267.00 587.00,267.00
             587.00,267.00 587.00,266.00 587.00,266.00 Z
           M 545.00,270.00
           C 545.00,270.00 544.00,270.00 544.00,270.00
             544.00,270.00 545.00,271.00 545.00,271.00
             545.00,271.00 545.00,270.00 545.00,270.00 Z
           M 542.00,273.00
           C 542.00,273.00 541.00,273.00 541.00,273.00
             541.00,273.00 542.00,274.00 542.00,274.00
             542.00,274.00 542.00,273.00 542.00,273.00 Z
           M 478.00,275.00
           C 478.00,275.00 477.00,275.00 477.00,275.00
             477.00,275.00 478.00,276.00 478.00,276.00
             478.00,276.00 478.00,275.00 478.00,275.00 Z
           M 541.00,275.00
           C 541.00,275.00 540.00,275.00 540.00,275.00
             540.00,275.00 541.00,276.00 541.00,276.00
             541.00,276.00 541.00,275.00 541.00,275.00 Z
           M 539.00,276.00
           C 539.00,276.00 538.00,276.00 538.00,276.00
             538.00,276.00 539.00,277.00 539.00,277.00
             539.00,277.00 539.00,276.00 539.00,276.00 Z
           M 495.00,328.00
           C 495.00,328.00 496.00,328.00 496.00,328.00
             496.00,328.00 495.00,329.00 495.00,329.00
             495.00,329.00 495.00,328.00 495.00,328.00 Z
           M 610.00,342.00
           C 610.00,342.00 609.00,342.00 609.00,342.00
             609.00,342.00 610.00,343.00 610.00,343.00
             610.00,343.00 610.00,342.00 610.00,342.00 Z
           M 610.00,344.00
           C 610.00,344.00 609.00,344.00 609.00,344.00
             609.00,344.00 610.00,345.00 610.00,345.00
             610.00,345.00 610.00,344.00 610.00,344.00 Z
           M 573.00,400.00
           C 573.00,400.00 572.00,400.00 572.00,400.00
             572.00,400.00 573.00,401.00 573.00,401.00
             573.00,401.00 573.00,400.00 573.00,400.00 Z
           M 588.00,409.00
           C 588.00,409.00 587.00,409.00 587.00,409.00
             587.00,409.00 588.00,410.00 588.00,410.00
             588.00,410.00 588.00,409.00 588.00,409.00 Z
           M 591.00,412.00
           C 591.00,412.00 590.00,412.00 590.00,412.00
             590.00,412.00 591.00,413.00 591.00,413.00
             591.00,413.00 591.00,412.00 591.00,412.00 Z
           M 602.00,415.00
           C 602.00,415.00 601.00,415.00 601.00,415.00
             601.00,415.00 602.00,416.00 602.00,416.00
             602.00,416.00 602.00,415.00 602.00,415.00 Z" />
</svg>
